<?xml version="1.0" encoding="utf-8"?>
<!-- Generator: Adobe Illustrator 19.0.0, SVG Export Plug-In . SVG Version: 6.00 Build 0)  -->
<svg version="1.1" id="Layer_1" xmlns="http://www.w3.org/2000/svg" xmlns:xlink="http://www.w3.org/1999/xlink" x="0px" y="0px"
	 viewBox="0 0 136.6 149.9" style="enable-background:new 0 0 136.6 149.9;" xml:space="preserve">
<style type="text/css">
	.st0{fill:#FF931E;}
	.st1{fill:#FF9F43;}
	.st2{clip-path:url(#XMLID_54_);fill:#FF9F43;}
	.st3{clip-path:url(#XMLID_55_);fill:#FF9F43;}
</style>
<g id="XMLID_151_">
	<g id="XMLID_176_">
		<path id="XMLID_178_" class="st0" d="M83.4,46.3c2.4,1.3,4.9,2.1,3.6,4.6c0-0.1,0.8-0.3,0.9-0.3c0.5-0.2,0.9-0.5,1.4-0.7
			c0.6-0.4,1.3-0.8,1.8-1.3c1.4-1.3,2.3-3.4,2.1-5.3c-3.7,1.5-5.3-2.6-4.1-5.5c0.8-2,3.5-3,5.6-3.3c1.4-0.2,3-0.1,4.3,0.2
			c1.3,0.4,1.6,1.1,1.4,2.3c2.2-2,4.8-5,4.2-8.2c-1.6,0.1-4.4-1.1-4.7-2.5c1-0.2,2.8-0.6,4.1-0.3c-0.2-0.4-0.7-0.8-1.4-1.1
			c-1.6-0.7-3.2-0.9-4.8-1.3c-1.7-0.5-3.6-1.4-5-2.3c-1.5-1.1-2-3-3.5-4.2c-2.2-1.8-5.6-3.2-8.5-3.6c-0.6-0.1-2.7,0.2-3.2-0.1
			c2.3,1.6,2.8,3.5,3.4,6.1c-1.6,1-6.8-1.6-8.2-2.7c-0.1,3.3-3.2,6.2-3.8,9.5c-0.9,4.9-1.3,9.2,1.4,13.2
			C74.5,45.7,83.4,46.3,83.4,46.3z M76.8,45.4 M83.3,21.6c2-1,2.6-1.9,5-0.7c1.1,0.5,2.2,1.3,3.2,1.9C89.1,24,85.4,24.3,83.3,21.6z"
			/>
		<path id="XMLID_177_" class="st0" d="M106.1,41.9c-4.6,1.7-7.4-0.7-10.2-3.5c-1.2-1.2-2.6-2.4-4.6,0.5c2.2,0.1,3.4,1.6,4.7,3
			C99.1,45.1,102.1,45.2,106.1,41.9z"/>
	</g>
	<g id="XMLID_171_">
		<path id="XMLID_175_" class="st1" d="M65.2,22.6c0.9-1.4,3.2-6.3,4.8-6.7c-3.3,0-9,1.4-11.6,4.6c-1.8,2.3-2.4,5.5-2,8.5
			c0.3,2.2,1.1,4.6,2.6,6.4c1.7,2,3.5,4.6,3,6.3c-1.1,3.8,0.1,9.2,0.1,10.4c1.5-3.3,2-6.2,3.2-7.7c1.2-1.5,3.5-3.4,3.5-3.4
			s-4.2-2.7-4.8-6.2C63.3,30.4,62.9,26.2,65.2,22.6z"/>
		<path id="XMLID_174_" class="st1" d="M70.5,13.2c0.3,0.6,1.7,1.1,2.3,1.4c1.2,0.7,2.4,1.4,3.4,2.3c-0.1-1.1-0.2-3.6-0.8-4.5
			c-0.8-1.1-3.1-1.2-4.8-1.9C70.6,11.3,70.2,12.5,70.5,13.2z"/>
		<path id="XMLID_173_" class="st1" d="M62.4,10.3c-4.7-0.5-10.6,3.1-12.6,7.1c-2.1,4.4-0.6,11.4,1.3,15.7c0.8-3.4,1.1-7.4,3.2-10.5
			c3-4.4,8.9-7.2,14.2-8.3C66.5,12.2,64.9,10.5,62.4,10.3z"/>
		<path id="XMLID_172_" class="st1" d="M67.9,9.6c0,0,5-3.2,9.5,1.7c0,0,4.8,0.2,6.9,1.6c0,0,1.3-14.9-18.8-12
			c-10.6,1.4-17,10.9-17.9,14.4C47.6,15.4,57.4,3.4,67.9,9.6z"/>
	</g>
	<g id="XMLID_165_">
		<path id="XMLID_167_" class="st1" d="M39.8,91.8c-4.6,7.5-7.8,13-14,7.5c-2.7-2.4-0.3-10.2-2.3-18.6C21,70.2,14.9,69.4,9.8,71.7
			c-3.4,1.5-6.1,4.9-7.5,6C2,78,2,78.5,2.4,78.8L6.8,80l-1.1-1.9c-0.1-0.2,0-0.5,0.3-0.5l4.3-0.5c0.5-0.1,0.9,0.5,0.6,0.9l-1.3,2.4
			c0,0-1.8,2.7-1.8,2.7c4-2.3,4.8-4.5,6.2-4.8c1.8-0.4,2.1,3,2.2,4.9c0.3,7.6,0.1,5,0.3,7.3c0.1,1.4-1.2,6.4,3.2,12.4
			c2.7,3.7,13.6,7.8,18.7,2.3c4.3-4.7,5.6-8.3,8-9.8c3.1-1.9,9.4,1.3,9.4,1.3S55.1,95,55.5,93c0.4-1.9,1.3-2.9,1.3-2.9
			S44.6,83.9,39.8,91.8z M13,74.7c-1.6,0.5-2.5-0.1-2.5-0.1s1.6-1.5,2.5-1.8c0.6-0.2,1.8,0.4,1.8,0.4S14.3,74.3,13,74.7z"/>
	</g>
	<path id="XMLID_164_" class="st1" d="M65.8,64.5c-1.9-4-5.7-8.7-10.1-13.6c-1.8-2-3.6-3.8-5.5-5.7c-3.4-3.5-6.2-7.4-7.5-12.3
		c-1-4-1.1-8.1-0.5-12.2c0.5-3.2,1.3-6.4,2-9.6c0-0.2,0.1-0.4,0.1-0.6c0,0-0.1-0.1-0.1-0.1c-1.3,1.2-2.5,2.4-3.8,3.6
		c-2.2,2.2-4.1,4.6-5.6,7.3c-3,5.4-2.8,10.6,0.5,15.8c2.1,3.3,4.9,6.1,7.6,8.9c3.1,3.2,6.2,6.4,9,9.7c3,3.6,5.2,7.6,6,12.3
		c0,0.1,0,0.2,0.1,0.4c-0.1-0.1-0.3-0.1-0.4-0.2c-0.1-0.1-0.1-0.3-0.2-0.4c-1.7-4.7-4.7-8.5-8.3-11.9c-3.5-3.2-7.2-6.2-10.6-9.4
		c-1.9-1.8-3.7-3.8-5.3-5.8c-2.8-3.6-4-7.8-4.1-12.4c-0.1,0.2-0.2,0.3-0.2,0.5C26,37.4,27.7,45,33.7,51.6c3.4,3.7,7.1,7.1,10.7,10.7
		c0.9,0.9,1.8,1.8,2.7,2.7c-0.6-0.1-1.1-0.2-1.7-0.3c-1.9-0.3-3.8-0.6-5.7-0.9c-3.6-0.5-6.9-1.5-9.9-3.7c-2.4-1.9-4.4-4.2-5.9-6.8
		c-1.2-2.1-2.2-4.3-3.3-6.5c-0.1-0.1-0.1-0.3-0.2-0.4c0,0-0.1,0-0.1,0c-0.2,1.3-0.3,2.5-0.5,3.8c-0.2,2.3-0.2,4.5,0.2,6.8
		c0.8,4.5,3.3,7.4,7.6,8.9c2.7,1,5.6,1.3,8.4,1.7c3.2,0.5,6.4,0.9,9.6,1.6c3.3,0.7,6.4,2.1,9.1,4.4c0.3,0.2,0.5,0.5,0.7,0.8
		c-0.4-0.2-0.7-0.5-1.1-0.7c-3.1-1.9-6.6-2.8-10.2-3.1c-3.4-0.3-6.9-0.3-10.3-0.6c-1.9-0.2-3.8-0.5-5.7-1c-3.2-0.8-5.9-2.7-8-5.4
		c0,0.1,0.1,0.3,0.1,0.4c2.2,6.3,6.7,10,13.1,11.1c3.6,0.7,7.3,0.9,11,1.4c2.5,0.3,4.9,0.6,7.3,1c3.6,0.7,4.2,0.8,7.1,1.4
		c0.9,0.2,1.7-0.1,2.3-0.8c0.4-0.1,0.8-0.2,1.1-0.5c1.3-0.9,2.8-1.9,3-2C68.5,71.4,68.2,69.1,65.8,64.5z"/>
	<g id="XMLID_161_">
		<defs>
			<ellipse id="XMLID_162_" cx="54.8" cy="134.8" rx="18.1" ry="23.8"/>
		</defs>
		<clipPath id="XMLID_54_">
			<use xlink:href="#XMLID_162_"  style="overflow:visible;"/>
		</clipPath>
		<path id="XMLID_163_" class="st2" d="M135.8,82.9c-2.8-6.4-2.7-6.4-9.7-6.5c-6.1-0.1-12.2-0.3-18.4-0.5c-1.9,0-3-0.5-2.5-2.7
			c1.6-7.5-1.5-14.5-6.7-19.2c-2.6-2.4-8.5-3-10.7-3.8c-0.6-0.2-1.2-0.6-1.6-1.2c-0.9-1.2-2.7-3.7-5.4-3c-4.4,1.1-10-4.7-10-4.7
			L69,44.2c-1.7,2.8-1.9,6.3-0.5,9.2c0.1,0.3,0.3,0.5,0.4,0.8c3.3,7.6,5.7,19.1-6.4,28c-0.9,0.7-1.7,1.5-2.2,2.6l-1.3,2.4
			C57.4,90,58,93.3,60,95.8c3.9,4.9-7.2,19.5-17.2,24.6c-2.3,1.1-2.9,2.3-2.5,4.6c1.2,7,2.4,14.1,3.5,21.1c0.3,1.8,0.9,2.8,3.3,2.5
			c1.8-0.2,3.6-0.3,5.3-0.3c0.2-0.1,1.3-0.8,1.3-2.9c0-0.7,1.4,2.2,1.8,2.9c0.4,0,0.8,0,1.1,0c0.1,0,1.3-0.7,1.3-2.9
			c0-0.8,1.8,3,1.8,3l-1.3,0c1,0,2,0.1,3,0.2c0.3-0.4,0.7-1.2,0.7-2.3c0-0.6,1,1.4,1.5,2.4c0.2,0,0.4,0,0.7,0
			c2.7,0.2,2.9-0.8,2.1-2.6c-0.3-0.8-0.7-1.6-1-2.4c-2.5-6.1-2.5-6.2-8.9-5.1c-1.3,0.2-2.7,1.2-3.7-0.7c-0.8-1.6-0.5-3,0.4-4.5
			c0.9-1.4,2.3-2.2,3.8-2.7c6.9-2.6,11.6-7.5,15-14c7.4-14.3,7.7-14.6,21.7-22.1c-3.4-3.2-5.9-6.5-6.5-11.5c1.6,1.8,2.7,3.2,4,4.5
			c3.2,3.4,6.7,4.8,11.5,3.2c5-1.7,10.2-2.7,15.3-4c1.2-0.3,2.7-1.2,3.3,0.6c0.9,3.1,2.9,2.5,5,1.8c2.3-0.7,4.7-1.5,7-1.6
			C137.6,87.6,137,85.6,135.8,82.9z"/>
	</g>
	<g id="XMLID_154_">
		<defs>
			<path id="XMLID_156_" d="M140.7,79.2c0,20.8-22,37.6-49.1,37.6c-6.2,0-13.2,7.1-17.6,3.4c-2.2-1.8-6.1-7.2-8.6-8.4
				c-2.6-1.3-5.9-3.2-9.8-3.4C43.9,107.8,42.6,90,42.6,79.2c0-20.8,22-37.6,49.1-37.6S140.7,58.4,140.7,79.2z"/>
		</defs>
		<clipPath id="XMLID_55_">
			<use xlink:href="#XMLID_156_"  style="overflow:visible;"/>
		</clipPath>
		<ellipse id="XMLID_158_" class="st3" cx="53.9" cy="137.4" rx="18.1" ry="23.8"/>
		<path id="XMLID_157_" class="st3" d="M134.9,85.4c-2.8-6.4-2.7-6.4-9.7-6.5c-6.1-0.1-12.2,1.3-18.4,1.2c-1.9,0-5.2-3.9-5.9-6.1
			c-2.4-7.1-3.2-11.9-8.3-16.7c-2.6-2.4-3.4-3.9-5.6-4.7c-0.6-0.2-1.2-0.6-1.6-1.2c-0.9-1.2-2.7-3.7-5.4-3c-4.4,1.1-10-4.7-10-4.7
			l-1.8,2.9c-1.8,2.8-1.9,6.3-0.5,9.2c0.1,0.3,0.3,0.5,0.4,0.8c3.3,7.6,5.8,16.9-4.9,28c-0.8,0.8-1.6,1.6-2.1,2.6l-0.2,0.3
			c-1.3,1.7-2.3,3.6-2.6,5.8c-0.3,1.8-1.1,3.5,0,4.9c3.9,4.9-6.2,19.5-16.2,24.6c-2.3,1.1-2.9,2.3-2.5,4.6c1.2,7,2.4,14.1,3.5,21.1
			c0.3,1.7,0.9,2.7,3.1,2.6c5.7-0.4,11.5-0.5,17.2,0.1c3,0.3,3.1-0.8,2.4-2.6c-0.3-0.8-0.7-1.6-1-2.4c-2.5-6.1-2.5-6.2-8.9-5.1
			c-1.3,0.2-2.7,1.2-3.7-0.7c-0.8-1.6-0.5-3,0.4-4.5c0.9-1.4,2.3-2.2,3.8-2.7c6.9-2.6,11.6-7.5,15-14c7.4-14.3,7.7-14.6,21.7-22.1
			c-3.4-3.2-5.9-8.2-6.5-13.2c1.6,1.8,2.7,3.2,4,4.5c3.2,3.4,6.7,4.8,11.5,3.2c5-1.7,10.2-1.8,15.3-3.1c1.2-0.3,2.7-0.4,3.3,1.4
			c0.7,2.4,2,2.5,3.6,2.2c0.3-0.4,0.6-1.4,0.2-2.9c-0.2-0.6,1.8,1.5,2.4,2.1c0.3-0.1,0.5-0.2,0.8-0.2c0.2-0.5,0.5-1.4,0.1-2.7
			c-0.2-0.6,1.7,1.3,2.4,2.1c0.5-0.1,1-0.2,1.5-0.3c0.3-0.4,0.8-1.3,0.6-2.7c-0.1-0.6,1.4,1.5,2,2.4C136.6,89.6,136,87.8,134.9,85.4
			z"/>
	</g>
	<path id="XMLID_153_" class="st1" d="M122.9,46.5c-0.6-0.2,2.2-0.9,3-1.1c0-0.2,0.1-0.4,0.1-0.7l-0.1,0.2c0,0-0.4-1.4-2.6-1.9
		c-0.6-0.2,2.1-0.9,3-1.1c0.1-0.7,0.3-1.3,0.4-2c-0.4-0.4-1-1-2.2-1.3c-0.6-0.1,1.7-0.8,2.7-1c0.5-2.5-0.3-3.4-3.8-3.2
		c-4.8,0.3-8,1.5-10.1,6.3c-1.9,4.5-4.8,8.6-7.1,13c-1.6,3.1-3.1,6-7.7,3.6c3.1,4.1,5.3,8,5.7,12.7c0.1,1.7,0.9,2,2.5,2
		c6.2,0.1,6.6-0.2,8.4-6.1c1.4-4.7,2.8-9.4,4.2-14.2c0.4-1.4,0.7-3,2.7-2.5c1.9,0.5,2.8-0.1,3.2-1.1
		C125.1,47.8,124.5,46.9,122.9,46.5z"/>
	<path id="XMLID_152_" class="st1" d="M111,147.6c-0.5-1-1-2-1.3-3.1c-1.3-4.1-3.2-6.5-8.1-4.8c-1.6,0.6-4.6,2.3-5.7-1.2
		c-0.9-2.9-0.5-5.3,2.1-7.5c7.6-6.3,9.7-16.3,5-24.2c-3.3-5.6-6.5-7.3-12.5-4.3c-6,3-10.8,6.9-12.7,13.8c-0.7,2.6-0.4,4.3,2.3,5.4
		c0.9,0.4,1.7,0.9,2.6,1.5c1.1,0.7,2.2,1.5,1.8,3c-0.4,1.5-1.5,1.9-2.9,1.9c-1,0-2,0-3.7,0c3.4,7,6.5,13.5,9.5,19.9
		c0.6,1.3,1.5,1.8,3,1.8c2.6,0,5.3,0,7.9,0c0.4-0.3,1-1.1,1.1-2.7c0-0.6,1.2,1.8,1.7,2.7c0.5,0,1,0,1.5,0c0.4-0.3,1-1.1,1.1-2.7
		c0-0.7,1.3,1.9,1.7,2.7c0.5,0,0.9,0,1.4,0c0.4-0.3,1.1-1.1,1.1-2.7c0-0.7,1.3,2,1.7,2.8C111.1,149.9,112.1,149.6,111,147.6z"/>
</g>
</svg>
